# Created with Anim8or 0.95
# Object "bullet":
# ComRec:
g mesh01
# No. points 161:
v 0 0.04068 3.87694
v 0 0.63870 3.77576
v -0.35212 0.52430 3.77696
v -0.56974 0.22479 3.78011
v -0.56974 -0.14543 3.78399
v -0.35212 -0.44494 3.78713
v 0 -0.55934 3.78833
v 0.35212 -0.44494 3.78713
v 0.56974 -0.14543 3.78399
v 0.56974 0.22479 3.78011
v 0.35212 0.52430 3.77696
v 0 1.17622 3.49481
v -0.66977 0.95859 3.4971
v -1.0837 0.38889 3.50307
v -1.0837 -0.31531 3.51046
v -0.66977 -0.88501 3.51644
v 0 -1.10263 3.51872
v 0.66977 -0.88501 3.51644
v 1.0837 -0.31531 3.51046
v 1.0837 0.38889 3.50307
v 0.66977 0.95859 3.4971
v 0 1.60059 3.06144
v -0.92186 1.30101 3.06458
v -1.4916 0.51691 3.07281
v -1.4916 -0.45233 3.08298
v -0.92186 -1.23642 3.09121
v 0 -1.536 3.09435
v 0.92186 -1.23642 3.09121
v 1.4916 -0.45233 3.08298
v 1.4916 0.51691 3.07281
v 0.92186 1.30101 3.06458
v 0 1.8702 2.51819
v -1.0837 1.51812 2.52188
v -1.7535 0.59632 2.53155
v -1.7535 -0.54308 2.54351
v -1.0837 -1.46488 2.55318
v 0 -1.81695 2.55687
v 1.0837 -1.46488 2.55318
v 1.7535 -0.54308 2.54351
v 1.7535 0.59632 2.53155
v 1.0837 1.51812 2.52188
v 0 1.95881 1.91813
v -1.1395 1.58863 1.92202
v -1.8437 0.61936 1.93219
v -1.8437 -0.57868 1.94476
v -1.1395 -1.54796 1.95492
v 0 -1.91813 1.95881
v 1.1395 -1.54796 1.95492
v 1.8437 -0.57868 1.94476
v 1.8437 0.61936 1.93219
v 1.1395 1.58863 1.92202
v 0 1.95067 1.14278
v -1.1395 1.5805 1.14667
v -1.8437 0.61122 1.15684
v -1.8437 -0.58682 1.16941
v -1.1395 -1.55609 1.17958
v 0 -1.92627 1.18346
v 1.1395 -1.55609 1.17958
v 1.8437 -0.58682 1.16941
v 1.8437 0.61122 1.15684
v 1.1395 1.5805 1.14667
v 0 1.94254 0.36736
v -1.1395 1.57236 0.37124
v -1.8437 0.60309 0.38141
v -1.8437 -0.59495 0.39398
v -1.1395 -1.56423 0.40415
v 0 -1.9344 0.40803
v 1.1395 -1.56423 0.40415
v 1.8437 -0.59495 0.39398
v 1.8437 0.60309 0.38141
v 1.1395 1.57236 0.37124
v 0 1.9344 -0.40803
v -1.1395 1.56423 -0.40415
v -1.8437 0.59495 -0.39398
v -1.8437 -0.60309 -0.38141
v -1.1395 -1.57236 -0.37124
v 0 -1.94254 -0.36736
v 1.1395 -1.57236 -0.37124
v 1.8437 -0.60309 -0.38141
v 1.8437 0.59495 -0.39398
v 1.1395 1.56423 -0.40415
v 0 1.92627 -1.18346
v -1.1395 1.55609 -1.17958
v -1.8437 0.58682 -1.16941
v -1.8437 -0.61122 -1.15684
v -1.1395 -1.5805 -1.14667
v 0 -1.95067 -1.14278
v 1.1395 -1.5805 -1.14667
v 1.8437 -0.61122 -1.15684
v 1.8437 0.58682 -1.16941
v 1.1395 1.55609 -1.17958
v 0 1.91813 -1.95881
v -1.1395 1.54796 -1.95492
v -1.8437 0.57868 -1.94476
v -1.8437 -0.61936 -1.93219
v -1.1395 -1.58863 -1.92202
v 0 -1.95881 -1.91813
v 1.1395 -1.58863 -1.92202
v 1.8437 -0.61936 -1.93219
v 1.8437 0.57868 -1.94476
v 1.1395 1.54796 -1.95492
v 0 1.72425 -1.95677
v -1.0255 1.39107 -1.95328
v -1.6594 0.51878 -1.94413
v -1.6594 -0.55946 -1.93281
v -1.0255 -1.43174 -1.92366
v 0 -1.76492 -1.92017
v 1.0255 -1.43174 -1.92366
v 1.6594 -0.55946 -1.93281
v 1.6593 0.51879 -1.94413
v 1.0255 1.39107 -1.95328
v 0 1.71693 -2.65443
v -1.0255 1.38375 -2.65093
v -1.6594 0.51146 -2.64178
v -1.6594 -0.56678 -2.63047
v -1.0255 -1.43906 -2.62132
v 0 -1.77224 -2.61782
v 1.0255 -1.43906 -2.62132
v 1.6594 -0.56678 -2.63047
v 1.6593 0.51147 -2.64178
v 1.0255 1.38375 -2.65093
v 0 1.96141 -2.65699
v -1.1692 1.58154 -2.65301
v -1.8918 0.58699 -2.64257
v -1.8918 -0.64231 -2.62968
v -1.1692 -1.63685 -2.61924
v 0 -2.01672 -2.61526
v 1.1692 -1.63685 -2.61924
v 1.8918 -0.64231 -2.62968
v 1.8918 0.58699 -2.64257
v 1.1692 1.58154 -2.65301
v 0 1.95013 -3.73242
v -1.1692 1.57025 -3.72844
v -1.8918 0.57571 -3.718
v -1.8918 -0.65359 -3.7051
v -1.1692 -1.64813 -3.69467
v 0 -2.02801 -3.69068
v 1.1692 -1.64813 -3.69467
v 1.8918 -0.65359 -3.7051
v 1.8918 0.57572 -3.718
v 1.1692 1.57025 -3.72844
v 0 1.34927 -3.72612
v -0.81600 1.08409 -3.72334
v -1.3203 0.39002 -3.71605
v -1.3203 -0.46790 -3.70705
v -0.81600 -1.16197 -3.69977
v 0 -1.42715 -3.69699
v 0.81600 -1.16197 -3.69977
v 1.3203 -0.46790 -3.70705
v 1.3203 0.39002 -3.71605
v 0.81599 1.08409 -3.72334
v 0 1.36796 -1.94454
v -0.81600 1.10278 -1.94175
v -1.3203 0.40871 -1.93447
v -1.3203 -0.44921 -1.92547
v -0.81600 -1.14327 -1.91819
v 0 -1.40846 -1.91541
v 0.81600 -1.14327 -1.91819
v 1.3203 -0.44921 -1.92547
v 1.3203 0.40871 -1.93447
v 0.81599 1.10278 -1.94175

# No. normals 392:
vn -0.14592 0.45827 0.87675
vn -0.38200 0.28676 0.87855
vn -0.47218 0.00925 0.88145
vn -0.38200 -0.26827 0.88437
vn -0.14590 -0.43977 0.88618
vn 0.14592 -0.43978 0.88617
vn 0.38200 -0.26827 0.88437
vn 0.47218 0.00925 0.88145
vn 0.38200 0.28676 0.87855
vn 0.14590 0.45827 0.87676
vn -0.22398 0.69636 0.68185
vn -0.58624 0.43312 0.68463
vn -0.72463 0.00723 0.68910
vn -0.58625 -0.41869 0.69355
vn -0.22394 -0.68188 0.69634
vn 0.22398 -0.68190 0.69631
vn 0.58624 -0.41866 0.69357
vn 0.72463 0.00723 0.68910
vn 0.58625 0.43315 0.68461
vn 0.22394 0.69634 0.68188
vn -0.27814 0.86034 0.42714
vn -0.72802 0.53350 0.43054
vn -0.89989 0.00458 0.43609
vn -0.72802 -0.52435 0.44163
vn -0.27809 -0.85127 0.44498
vn 0.27814 -0.85119 0.44509
vn 0.72802 -0.52435 0.44164
vn 0.89989 0.00458 0.43609
vn 0.72802 0.53350 0.43054
vn 0.27809 0.86042 0.42702
vn -0.30556 0.94195 0.13914
vn -0.80003 0.58272 0.14279
vn -0.98886 0.00156 0.14887
vn -0.79997 -0.57964 0.15511
vn -0.30554 -0.93884 0.15883
vn 0.30556 -0.93883 0.15887
vn 0.80003 -0.57960 0.15498
vn 0.98886 0.00156 0.14887
vn 0.79997 0.58277 0.14291
vn 0.30554 0.94197 0.13910
vn -0.30899 0.95101 -0.00998
vn -0.80905 0.58771 -0.00617
vn -1 0 0
vn -0.80905 -0.58771 0.00617
vn -0.30899 -0.95101 0.00998
vn 0.30899 -0.95101 0.00998
vn 0.80905 -0.58771 0.00617
vn 1 0 0
vn 0.80905 0.58771 -0.00617
vn 0.30899 0.95101 -0.00998
vn -0.30899 0.95101 -0.00998
vn -0.80905 0.58771 -0.00617
vn -1 0 0
vn -0.80905 -0.58771 0.00617
vn -0.30899 -0.95101 0.00998
vn 0.30899 -0.95101 0.00998
vn 0.80905 -0.58771 0.00617
vn 1 0 0
vn 0.80905 0.58771 -0.00617
vn 0.30899 0.95101 -0.00998
vn -0.30899 0.95101 -0.00998
vn -0.80905 0.58771 -0.00617
vn -1 0 0
vn -0.80905 -0.58771 0.00617
vn -0.30899 -0.95101 0.00998
vn 0.30899 -0.95101 0.00998
vn 0.80905 -0.58771 0.00617
vn 1 0 0
vn 0.80905 0.58771 -0.00617
vn 0.30899 0.95101 -0.00998
vn -0.30899 0.95101 -0.00998
vn -0.80905 0.58771 -0.00617
vn -1 0 0
vn -0.80905 -0.58771 0.00617
vn -0.30899 -0.95101 0.00998
vn 0.30899 -0.95101 0.00998
vn 0.80905 -0.58771 0.00617
vn 1 0 0
vn 0.80905 0.58771 -0.00617
vn 0.30899 0.95101 -0.00998
vn -0.30899 0.95101 -0.00998
vn -0.80905 0.58771 -0.00617
vn -1 0 0
vn -0.80905 -0.58771 0.00617
vn -0.30899 -0.95101 0.00998
vn 0.30899 -0.95101 0.00998
vn 0.80905 -0.58771 0.00617
vn 1 0 0
vn 0.80905 0.58771 -0.00617
vn 0.30899 0.95101 -0.00998
vn -0.05077 0.16660 0.98472
vn -0.13293 0.10692 0.98534
vn -0.16431 0.01035 0.98636
vn -0.13293 -0.08622 0.98737
vn -0.05077 -0.14590 0.98799
vn 0.05077 -0.14590 0.98799
vn 0.13293 -0.08622 0.98737
vn 0.16431 0.01035 0.98636
vn 0.13293 0.10692 0.98534
vn 0.05077 0.16660 0.98472
vn 0 -0.01049 -0.999945
vn 0 -0.01049 -0.999945
vn 0 -0.01049 -0.999945
vn 0 -0.01049 -0.999945
vn 0 -0.01049 -0.999945
vn 0 -0.01049 -0.999945
vn 0 -0.01049 -0.999945
vn 0 -0.01049 -0.999945
vn 0 -0.01049 -0.999945
vn 0 -0.01049 -0.999945
vn 0.30902 0.95100 -0.00998
vn -0.30902 0.95100 -0.00998
vn -0.80898 0.58781 -0.00617
vn -1 0 0
vn -0.80897 -0.58781 0.00617
vn -0.30902 -0.95100 0.00998
vn 0.30902 -0.95100 0.00998
vn 0.80897 -0.58781 0.00617
vn 1 0.00009 0
vn 0.80902 0.58775 -0.00617
vn 0 0.01049 0.999945
vn 0 0.01049 0.999945
vn 0 0.01049 0.999945
vn 0 0.01049 0.999945
vn 0 0.01049 0.999945
vn 0 0.01049 0.999945
vn 0 0.01049 0.999945
vn 0 0.01049 0.999945
vn 0 0.01049 0.999945
vn 0 0.01049 0.999945
vn 0.30902 0.95100 -0.00998
vn -0.30902 0.95100 -0.00998
vn -0.80903 0.58773 -0.00617
vn -1 0 0
vn -0.80903 -0.58773 0.00617
vn -0.30902 -0.95100 0.00998
vn 0.30902 -0.95100 0.00998
vn 0.80903 -0.58773 0.00617
vn 1 0 0
vn 0.80903 0.58773 -0.00617
vn 0 -0.01049 -0.999945
vn 0 -0.01049 -0.999945
vn 0 -0.01049 -0.999945
vn 0 -0.01049 -0.999945
vn 0 -0.01049 -0.999945
vn 0 -0.01049 -0.999945
vn 0 -0.01049 -0.999945
vn 0 -0.01049 -0.999945
vn 0 -0.01049 -0.999945
vn 0 -0.01049 -0.999945
vn -0.30909 -0.95098 0.00998
vn 0.30909 -0.95098 0.00998
vn 0.80902 -0.58775 0.00617
vn 1 0 0
vn 0.80902 0.58775 -0.00617
vn 0.30909 0.95098 -0.00998
vn -0.30909 0.95098 -0.00998
vn -0.80902 0.58775 -0.00617
vn -1 0 0
vn -0.80901 -0.58776 0.00617
vn 0 -0.01049 -0.999945
vn 0 0.01049 0.999945
vn 0 0.31824 0.94801
vn -0.18121 0.25937 0.94863
vn -0.29320 0.10524 0.95024
vn -0.29319 -0.08528 0.95224
vn -0.18120 -0.23940 0.95386
vn 0 -0.29828 0.95448
vn 0.18121 -0.23941 0.95386
vn 0.29320 -0.08528 0.95224
vn 0.29319 0.10524 0.95024
vn 0.18120 0.25936 0.94863
vn -0.00001 0.59526 0.80354
vn -0.34493 0.48319 0.80470
vn -0.55808 0.18981 0.80778
vn -0.55809 -0.17283 0.81158
vn -0.34492 -0.46621 0.81467
vn 0.00001 -0.57827 0.81585
vn 0.34493 -0.46620 0.81466
vn 0.55808 -0.17282 0.81159
vn 0.55809 0.18982 0.80778
vn 0.34492 0.48320 0.80471
vn -0.00002 0.81448 0.58020
vn -0.47515 0.66008 0.58182
vn -0.76877 0.25595 0.58607
vn -0.76877 -0.24361 0.59131
vn -0.47514 -0.64776 0.59552
vn 0.00002 -0.80213 0.59716
vn 0.47515 -0.64773 0.59555
vn 0.76877 -0.24360 0.59131
vn 0.76877 0.25596 0.58606
vn 0.47514 0.66011 0.58180
vn -0.00002 0.95403 0.29971
vn -0.55891 0.77243 0.30161
vn -0.90431 0.29705 0.30656
vn -0.90430 -0.29056 0.31276
vn -0.55887 -0.76596 0.31774
vn 0.00002 -0.94753 0.31966
vn 0.55891 -0.76593 0.31775
vn 0.90431 -0.29055 0.31273
vn 0.90430 0.29706 0.30659
vn 0.55887 0.77246 0.30160
vn -0.00001 0.99768 0.06806
vn -0.58598 0.80729 0.07004
vn -0.94813 0.30885 0.07523
vn -0.94812 -0.30721 0.08173
vn -0.58596 -0.80565 0.08699
vn 0.00001 -0.99603 0.08898
vn 0.58598 -0.80564 0.08696
vn 0.94813 -0.30720 0.08170
vn 0.94812 0.30886 0.07527
vn 0.58596 0.80730 0.07006
vn 0 0.999945 -0.01049
vn -0.58779 0.80897 -0.00849
vn -0.95106 0.30898 -0.00324
vn -0.95106 -0.30898 0.00324
vn -0.58779 -0.80897 0.00849
vn 0 -0.999945 0.01049
vn 0.58779 -0.80897 0.00849
vn 0.95106 -0.30898 0.00324
vn 0.95106 0.30898 -0.00324
vn 0.58779 0.80897 -0.00849
vn 0 0.999945 -0.01049
vn -0.58779 0.80897 -0.00849
vn -0.95106 0.30898 -0.00324
vn -0.95106 -0.30898 0.00324
vn -0.58779 -0.80897 0.00849
vn 0 -0.999945 0.01049
vn 0.58779 -0.80897 0.00849
vn 0.95106 -0.30898 0.00324
vn 0.95106 0.30898 -0.00324
vn 0.58779 0.80897 -0.00849
vn 0 0.999945 -0.01049
vn -0.58779 0.80897 -0.00849
vn -0.95106 0.30898 -0.00324
vn -0.95106 -0.30898 0.00324
vn -0.58779 -0.80897 0.00849
vn 0 -0.999945 0.01049
vn 0.58779 -0.80897 0.00849
vn 0.95106 -0.30898 0.00324
vn 0.95106 0.30898 -0.00324
vn 0.58779 0.80897 -0.00849
vn 0 0.999945 -0.01049
vn -0.58779 0.80897 -0.00849
vn -0.95106 0.30898 -0.00324
vn -0.95106 -0.30898 0.00324
vn -0.58779 -0.80897 0.00849
vn 0 -0.999945 0.01049
vn 0.58779 -0.80897 0.00849
vn 0.95106 -0.30898 0.00324
vn 0.95106 0.30898 -0.00324
vn 0.58779 0.80897 -0.00849
vn 0 0.999945 -0.01049
vn 0 -0.01049 -0.999945
vn -0.58779 0.80897 -0.00849
vn 0 -0.01049 -0.999945
vn -0.95106 0.30898 -0.00324
vn 0 -0.01049 -0.999945
vn -0.95106 -0.30898 0.00324
vn 0 -0.01049 -0.999945
vn -0.58779 -0.80897 0.00849
vn 0 -0.01049 -0.999945
vn 0 -0.999945 0.01049
vn 0 -0.01049 -0.999945
vn 0.58779 -0.80897 0.00849
vn 0 -0.01049 -0.999945
vn 0.95106 -0.30898 0.00324
vn 0 -0.01049 -0.999945
vn 0.95106 0.30898 -0.00324
vn 0 -0.01049 -0.999945
vn 0.58779 0.80897 -0.00849
vn 0 -0.01049 -0.999945
vn 0 -0.01049 -0.999945
vn 0 0.999945 -0.01049
vn 0 -0.01049 -0.999945
vn -0.58776 0.80899 -0.00849
vn 0 -0.01049 -0.999945
vn -0.95105 0.30903 -0.00324
vn 0 -0.01049 -0.999945
vn -0.95105 -0.30904 0.00324
vn 0 -0.01049 -0.999945
vn -0.58776 -0.80899 0.00849
vn 0 -0.01049 -0.999945
vn 0 -0.999945 0.01049
vn 0 -0.01049 -0.999945
vn 0.58776 -0.80899 0.00849
vn 0 -0.01049 -0.999945
vn 0.95106 -0.30899 0.00324
vn 0 -0.01049 -0.999945
vn 0.95104 0.30904 -0.00324
vn 0 -0.01049 -0.999945
vn 0.58779 0.80897 -0.00849
vn 0 0.999945 -0.01049
vn 0 0.01049 0.999945
vn -0.58776 0.80899 -0.00849
vn 0 0.01049 0.999945
vn -0.95105 0.30903 -0.00324
vn 0 0.01049 0.999945
vn -0.95105 -0.30904 0.00324
vn 0 0.01049 0.999945
vn -0.58776 -0.80899 0.00849
vn 0 0.01049 0.999945
vn 0 -0.999945 0.01049
vn 0 0.01049 0.999945
vn 0.58776 -0.80899 0.00849
vn 0 0.01049 0.999945
vn 0.95106 -0.30899 0.00324
vn 0 0.01049 0.999945
vn 0.95104 0.30904 -0.00324
vn 0 0.01049 0.999945
vn 0.58779 0.80897 -0.00849
vn 0 0.01049 0.999945
vn 0 0.01049 0.999945
vn 0 0.999945 -0.01049
vn 0 0.01049 0.999945
vn -0.58780 0.80896 -0.00849
vn 0 0.01049 0.999945
vn -0.95106 0.30899 -0.00324
vn 0 0.01049 0.999945
vn -0.95106 -0.30899 0.00324
vn 0 0.01049 0.999945
vn -0.58780 -0.80896 0.00849
vn 0 0.01049 0.999945
vn 0 -0.999945 0.01049
vn 0 0.01049 0.999945
vn 0.58780 -0.80896 0.00849
vn 0 0.01049 0.999945
vn 0.95106 -0.30899 0.00324
vn 0 0.01049 0.999945
vn 0.95106 0.30899 -0.00324
vn 0 0.01049 0.999945
vn 0.58780 0.80896 -0.00849
vn 0 0.999945 -0.01049
vn 0 -0.01049 -0.999945
vn -0.58780 0.80896 -0.00849
vn 0 -0.01049 -0.999945
vn -0.95106 0.30899 -0.00324
vn 0 -0.01049 -0.999945
vn -0.95106 -0.30899 0.00324
vn 0 -0.01049 -0.999945
vn -0.58780 -0.80896 0.00849
vn 0 -0.01049 -0.999945
vn 0 -0.999945 0.01049
vn 0 -0.01049 -0.999945
vn 0.58780 -0.80896 0.00849
vn 0 -0.01049 -0.999945
vn 0.95106 -0.30899 0.00324
vn 0 -0.01049 -0.999945
vn 0.95106 0.30899 -0.00324
vn 0 -0.01049 -0.999945
vn 0.58780 0.80896 -0.00849
vn 0 -0.01049 -0.999945
vn 0 -0.01049 -0.999945
vn 0 -0.999945 0.01049
vn 0 -0.01049 -0.999945
vn 0.58782 -0.80895 0.00849
vn 0 -0.01049 -0.999945
vn 0.95106 -0.30900 0.00324
vn 0 -0.01049 -0.999945
vn 0.95106 0.30900 -0.00324
vn 0 -0.01049 -0.999945
vn 0.58782 0.80895 -0.00849
vn 0 -0.01049 -0.999945
vn 0 0.999945 -0.01049
vn 0 -0.01049 -0.999945
vn -0.58782 0.80895 -0.00849
vn 0 -0.01049 -0.999945
vn -0.95106 0.30900 -0.00324
vn 0 -0.01049 -0.999945
vn -0.95106 -0.30900 0.00324
vn 0 -0.01049 -0.999945
vn -0.58782 -0.80895 0.00849
vn 0 -0.999945 0.01049
vn 0 -0.01049 -0.999945
vn 0.58782 -0.80895 0.00849
vn 0 -0.01049 -0.999945
vn 0.95106 -0.30900 0.00324
vn 0 -0.01049 -0.999945
vn 0.95106 0.30900 -0.00324
vn 0 -0.01049 -0.999945
vn 0.58782 0.80895 -0.00849
vn 0 -0.01049 -0.999945
vn 0 0.999945 -0.01049
vn 0 -0.01049 -0.999945
vn -0.58782 0.80895 -0.00849
vn 0 -0.01049 -0.999945
vn -0.95106 0.30900 -0.00324
vn 0 -0.01049 -0.999945
vn -0.95106 -0.30900 0.00324
vn 0 -0.01049 -0.999945
vn -0.58782 -0.80895 0.00849
vn 0 -0.01049 -0.999945

# No. texture coordinates 120:
vt 0 0.93900
vt 0.10000 0.93900
vt 0.20000 0.93900
vt 0.30000 0.93900
vt 0.40000 0.93900
vt 0.50000 0.93900
vt 0.60000 0.93900
vt 0.70000 0.93900
vt 0.80000 0.93900
vt 0.90000 0.93900
vt 1 0.93900
vt 0 0.87799
vt 0.10000 0.87799
vt 0.20000 0.87799
vt 0.30000 0.87799
vt 0.40000 0.87799
vt 0.50000 0.87799
vt 0.60000 0.87799
vt 0.70000 0.87799
vt 0.80000 0.87799
vt 0.90000 0.87799
vt 1 0.87799
vt 0 0.81699
vt 0.10000 0.81699
vt 0.20000 0.81699
vt 0.30000 0.81699
vt 0.40000 0.81699
vt 0.50000 0.81699
vt 0.60000 0.81699
vt 0.70000 0.81699
vt 0.80000 0.81699
vt 0.90000 0.81699
vt 1 0.81699
vt 0 0.75599
vt 0.10000 0.75599
vt 0.20000 0.75599
vt 0.30000 0.75599
vt 0.40000 0.75599
vt 0.50000 0.75599
vt 0.60000 0.75599
vt 0.70000 0.75599
vt 0.80000 0.75599
vt 0.90000 0.75599
vt 1 0.75599
vt 0 0.69498
vt 0.10000 0.69498
vt 0.20000 0.69498
vt 0.30000 0.69498
vt 0.40000 0.69498
vt 0.50000 0.69498
vt 0.60000 0.69498
vt 0.70000 0.69498
vt 0.80000 0.69498
vt 0.90000 0.69498
vt 1 0.69498
vt 0 0.61699
vt 0.10000 0.61699
vt 0.20000 0.61699
vt 0.30000 0.61699
vt 0.40000 0.61699
vt 0.50000 0.61699
vt 0.60000 0.61699
vt 0.70000 0.61699
vt 0.80000 0.61699
vt 0.90000 0.61699
vt 1 0.61699
vt 0 0.53900
vt 0.10000 0.53900
vt 0.20000 0.53900
vt 0.30000 0.53900
vt 0.40000 0.53900
vt 0.50000 0.53900
vt 0.60000 0.53900
vt 0.70000 0.53900
vt 0.80000 0.53900
vt 0.90000 0.53900
vt 1 0.53900
vt 0 0.46100
vt 0.10000 0.46100
vt 0.20000 0.46100
vt 0.30000 0.46100
vt 0.40000 0.46100
vt 0.50000 0.46100
vt 0.60000 0.46100
vt 0.70000 0.46100
vt 0.80000 0.46100
vt 0.90000 0.46100
vt 1 0.46100
vt 0 0.38301
vt 0.10000 0.38301
vt 0.20000 0.38301
vt 0.30000 0.38301
vt 0.40000 0.38301
vt 0.50000 0.38301
vt 0.60000 0.38301
vt 0.70000 0.38301
vt 0.80000 0.38301
vt 0.90000 0.38301
vt 1 0.38301
vt 0 0.30502
vt 0.10000 0.30502
vt 0.20000 0.30502
vt 0.30000 0.30502
vt 0.40000 0.30502
vt 0.50000 0.30502
vt 0.60000 0.30502
vt 0.70000 0.30502
vt 0.80000 0.30502
vt 0.90000 0.30502
vt 1 0.30502
vt 0 1
vt 0.10000 1
vt 0.20000 1
vt 0.30000 1
vt 0.40000 1
vt 0.50000 1
vt 0.60000 1
vt 0.70000 1
vt 0.80000 1
vt 0.90000 1

# No. faces 161:
f 12/12/173 13/13/174 3/2/164 2/1/163
f 13/13/174 14/14/175 4/3/165 3/2/164
f 14/14/175 15/15/176 5/4/166 4/3/165
f 15/15/176 16/16/177 6/5/167 5/4/166
f 16/16/177 17/17/178 7/6/168 6/5/167
f 17/17/178 18/18/179 8/7/169 7/6/168
f 18/18/179 19/19/180 9/8/170 8/7/169
f 19/19/180 20/20/181 10/9/171 9/8/170
f 20/20/181 21/21/182 11/10/172 10/9/171
f 21/21/182 12/22/173 2/11/163 11/10/172
f 22/23/183 23/24/184 13/13/174 12/12/173
f 23/24/184 24/25/185 14/14/175 13/13/174
f 24/25/185 25/26/186 15/15/176 14/14/175
f 25/26/186 26/27/187 16/16/177 15/15/176
f 26/27/187 27/28/188 17/17/178 16/16/177
f 27/28/188 28/29/189 18/18/179 17/17/178
f 28/29/189 29/30/190 19/19/180 18/18/179
f 29/30/190 30/31/191 20/20/181 19/19/180
f 30/31/191 31/32/192 21/21/182 20/20/181
f 31/32/192 22/33/183 12/22/173 21/21/182
f 32/34/193 33/35/194 23/24/184 22/23/183
f 33/35/194 34/36/195 24/25/185 23/24/184
f 34/36/195 35/37/196 25/26/186 24/25/185
f 35/37/196 36/38/197 26/27/187 25/26/186
f 36/38/197 37/39/198 27/28/188 26/27/187
f 37/39/198 38/40/199 28/29/189 27/28/188
f 38/40/199 39/41/200 29/30/190 28/29/189
f 39/41/200 40/42/201 30/31/191 29/30/190
f 40/42/201 41/43/202 31/32/192 30/31/191
f 41/43/202 32/44/193 22/33/183 31/32/192
f 42/45/203 43/46/204 33/35/194 32/34/193
f 43/46/204 44/47/205 34/36/195 33/35/194
f 44/47/205 45/48/206 35/37/196 34/36/195
f 45/48/206 46/49/207 36/38/197 35/37/196
f 46/49/207 47/50/208 37/39/198 36/38/197
f 47/50/208 48/51/209 38/40/199 37/39/198
f 48/51/209 49/52/210 39/41/200 38/40/199
f 49/52/210 50/53/211 40/42/201 39/41/200
f 50/53/211 51/54/212 41/43/202 40/42/201
f 51/54/212 42/55/203 32/44/193 41/43/202
f 52/56/213 53/57/214 43/46/204 42/45/203
f 53/57/214 54/58/215 44/47/205 43/46/204
f 54/58/215 55/59/216 45/48/206 44/47/205
f 55/59/216 56/60/217 46/49/207 45/48/206
f 56/60/217 57/61/218 47/50/208 46/49/207
f 57/61/218 58/62/219 48/51/209 47/50/208
f 58/62/219 59/63/220 49/52/210 48/51/209
f 59/63/220 60/64/221 50/53/211 49/52/210
f 60/64/221 61/65/222 51/54/212 50/53/211
f 61/65/222 52/66/213 42/55/203 51/54/212
f 62/67/223 63/68/224 53/57/214 52/56/213
f 63/68/224 64/69/225 54/58/215 53/57/214
f 64/69/225 65/70/226 55/59/216 54/58/215
f 65/70/226 66/71/227 56/60/217 55/59/216
f 66/71/227 67/72/228 57/61/218 56/60/217
f 67/72/228 68/73/229 58/62/219 57/61/218
f 68/73/229 69/74/230 59/63/220 58/62/219
f 69/74/230 70/75/231 60/64/221 59/63/220
f 70/75/231 71/76/232 61/65/222 60/64/221
f 71/76/232 62/77/223 52/66/213 61/65/222
f 72/78/233 73/79/234 63/68/224 62/67/223
f 73/79/234 74/80/235 64/69/225 63/68/224
f 74/80/235 75/81/236 65/70/226 64/69/225
f 75/81/236 76/82/237 66/71/227 65/70/226
f 76/82/237 77/83/238 67/72/228 66/71/227
f 77/83/238 78/84/239 68/73/229 67/72/228
f 78/84/239 79/85/240 69/74/230 68/73/229
f 79/85/240 80/86/241 70/75/231 69/74/230
f 80/86/241 81/87/242 71/76/232 70/75/231
f 81/87/242 72/88/233 62/77/223 71/76/232
f 82/89/243 83/90/244 73/79/234 72/78/233
f 83/90/244 84/91/245 74/80/235 73/79/234
f 84/91/245 85/92/246 75/81/236 74/80/235
f 85/92/246 86/93/247 76/82/237 75/81/236
f 86/93/247 87/94/248 77/83/238 76/82/237
f 87/94/248 88/95/249 78/84/239 77/83/238
f 88/95/249 89/96/250 79/85/240 78/84/239
f 89/96/250 90/97/251 80/86/241 79/85/240
f 90/97/251 91/98/252 81/87/242 80/86/241
f 91/98/252 82/99/243 72/88/233 81/87/242
f 92/100/253 93/101/255 83/90/244 82/89/243
f 93/101/255 94/102/257 84/91/245 83/90/244
f 94/102/257 95/103/259 85/92/246 84/91/245
f 95/103/259 96/104/261 86/93/247 85/92/246
f 96/104/261 97/105/263 87/94/248 86/93/247
f 97/105/263 98/106/265 88/95/249 87/94/248
f 98/106/265 99/107/267 89/96/250 88/95/249
f 99/107/267 100/108/269 90/97/251 89/96/250
f 100/108/269 101/109/271 91/98/252 90/97/251
f 101/109/271 92/110/253 82/99/243 91/98/252
f 2/1/163 3/2/164 1/111/162
f 3/2/164 4/3/165 1/112/162
f 4/3/165 5/4/166 1/113/162
f 5/4/166 6/5/167 1/114/162
f 6/5/167 7/6/168 1/115/162
f 7/6/168 8/7/169 1/116/162
f 8/7/169 9/8/170 1/117/162
f 9/8/170 10/9/171 1/118/162
f 10/9/171 11/10/172 1/119/162
f 11/10/172 2/11/163 1/120/162
f 111//291 102//273 92//254 101//272
f 102//273 103//275 93//256 92//254
f 103//275 104//277 94//258 93//256
f 104//277 105//279 95//260 94//258
f 105//279 106//281 96//262 95//260
f 106//281 107//283 97//264 96//262
f 107//283 108//285 98//266 97//264
f 108//285 109//287 99//268 98//266
f 109//287 110//289 100//270 99//268
f 110//289 111//291 101//272 100//270
f 121//311 112//293 102//274 111//292
f 112//293 113//295 103//276 102//274
f 113//295 114//297 104//278 103//276
f 114//297 115//299 105//280 104//278
f 115//299 116//301 106//282 105//280
f 116//301 117//303 107//284 106//282
f 117//303 118//305 108//286 107//284
f 118//305 119//307 109//288 108//286
f 119//307 120//309 110//290 109//288
f 120//309 121//311 111//292 110//290
f 131//331 122//313 112//294 121//312
f 122//313 123//315 113//296 112//294
f 123//315 124//317 114//298 113//296
f 124//317 125//319 115//300 114//298
f 125//319 126//321 116//302 115//300
f 126//321 127//323 117//304 116//302
f 127//323 128//325 118//306 117//304
f 128//325 129//327 119//308 118//306
f 129//327 130//329 120//310 119//308
f 130//329 131//331 121//312 120//310
f 141//351 132//333 122//314 131//332
f 132//333 133//335 123//316 122//314
f 133//335 134//337 124//318 123//316
f 134//337 135//339 125//320 124//318
f 135//339 136//341 126//322 125//320
f 136//341 137//343 127//324 126//322
f 137//343 138//345 128//326 127//324
f 138//345 139//347 129//328 128//326
f 139//347 140//349 130//330 129//328
f 140//349 141//351 131//332 130//330
f 151//371 142//353 132//334 141//352
f 142//353 143//355 133//336 132//334
f 143//355 144//357 134//338 133//336
f 144//357 145//359 135//340 134//338
f 145//359 146//361 136//342 135//340
f 146//361 147//363 137//344 136//342
f 147//363 148//365 138//346 137//344
f 148//365 149//367 139//348 138//346
f 149//367 150//369 140//350 139//348
f 150//369 151//371 141//352 140//350
f 161//391 152//373 142//354 151//372
f 152//373 153//375 143//356 142//354
f 153//375 154//377 144//358 143//356
f 154//377 155//379 145//360 144//358
f 155//379 156//381 146//362 145//360
f 156//381 157//383 147//364 146//362
f 157//383 158//385 148//366 147//364
f 158//385 159//387 149//368 148//366
f 159//387 160//389 150//370 149//368
f 160//389 161//391 151//372 150//370
f 161//392 160//390 159//388 158//386 157//384 156//382 155//380 154//378 153//376 152//374


